<?xml version="1.0" encoding="UTF-8"?>
<svg width="150px" height="150px" viewBox="0 0 150 150" version="1.1" xmlns="http://www.w3.org/2000/svg" xmlns:xlink="http://www.w3.org/1999/xlink">
    <!-- Generator: Sketch 45.2 (43514) - http://www.bohemiancoding.com/sketch -->
    <title>NBAbackup</title>
    <desc>Created with Sketch.</desc>
    <defs>
        <polygon id="path-1" points="2.24359377e-15 139.9999 2.24359377e-15 0 61.7718 0 61.7718 139.9999"></polygon>
    </defs>
    <g id="Page-1" stroke="none" stroke-width="1" fill="none" fill-rule="evenodd" opacity="0.24">
        <g id="NBAbackup">
            <g id="Page-1" transform="translate(44.000000, 5.000000)">
                <g id="Group-3">
                    <mask id="mask-2" fill="white">
                        <use xlink:href="#path-1"></use>
                    </mask>
                    <g id="Clip-2"></g>
                    <path d="M47.2718,-0.0001 L14.4908,-0.0001 C6.4948,-0.0001 -0.0002,6.5039 -0.0002,14.4899 L-0.0002,125.4889 C-0.0002,133.4879 6.4948,139.9999 14.4908,139.9999 L47.2488,139.9999 C55.2438,139.9999 61.7718,133.4879 61.7718,125.4889 L61.7718,14.4899 C61.7718,6.5039 55.2628,-0.0001 47.2718,-0.0001" id="Fill-1" fill="#FFFFFF" mask="url(#mask-2)"></path>
                </g>
                <path d="M39.1409,25.6654 L39.1749,26.1394 C40.1749,26.7214 40.6809,27.1954 41.6879,27.8444 C44.3629,29.5264 47.6559,32.5184 47.2399,42.8244 C47.9889,45.0724 48.3209,49.4894 49.0129,50.9054 C50.4049,53.6654 51.3339,55.4624 51.7419,58.0684 C51.7419,58.0684 52.1429,62.1254 52.6659,62.4184 C55.4299,63.0424 54.6309,63.3144 55.0359,63.7884 C55.4639,64.3434 57.0599,64.3174 57.0599,65.8054 C57.6149,66.5464 58.0239,67.3154 58.3349,68.1174 L58.3349,14.4904 C58.3349,8.3784 53.3649,3.4164 47.2719,3.4164 L36.6809,3.4164 C38.3819,4.0204 39.3419,4.7344 39.9029,5.8674 C41.2709,5.9854 42.8969,9.0504 40.3639,13.5784 C41.4859,14.3254 40.6099,15.4414 39.8049,16.7374 C39.5699,17.1534 39.3119,17.8914 38.5619,17.8424 C37.6009,19.8654 36.4389,21.8264 35.5619,21.9494 C35.2949,22.2784 35.1029,23.1484 35.5019,23.5574 C36.7909,24.1354 38.3629,24.9284 39.1409,25.6654" id="Fill-4" fill="#9B9B9B"></path>
                <path d="M58.3352,75.3832 C56.8982,79.0292 53.3212,81.6062 49.1432,81.6062 C43.6732,81.6062 39.2662,77.1852 39.2662,71.7332 C39.2662,67.0752 42.4672,63.1692 46.8132,62.1262 C45.6742,59.2772 43.2712,54.6592 42.5572,53.1432 C41.8812,51.6392 40.2522,42.2472 39.9012,40.3902 C39.8222,39.9842 35.6412,42.8162 35.6332,42.9912 C35.3892,43.2282 32.4962,50.7822 32.3742,51.1902 C32.3162,51.4482 32.3092,52.4572 32.3092,52.4572 C32.3092,52.4572 33.7312,52.6332 34.5502,55.1142 C35.3592,57.5922 37.8302,66.6402 37.8302,66.6402 C37.8302,66.6402 37.1612,67.3312 37.1332,67.2892 C40.2522,77.7342 39.1622,82.2282 40.5632,85.2902 C42.3212,89.6072 42.7962,89.0412 44.3062,92.6692 C45.3892,95.3122 46.5972,105.7112 47.0002,106.1712 C48.6842,108.3072 49.5912,109.9762 49.5912,111.1802 C49.5912,112.3922 48.1642,115.9732 48.6842,118.0592 C48.9992,119.2852 49.1642,122.0372 49.7352,122.5602 C49.7352,122.5602 50.2602,123.5922 50.0032,124.0512 C49.9292,124.2092 49.7792,124.4492 49.8462,124.6382 C50.7742,127.9182 53.7732,133.5102 48.9172,136.4392 L49.0222,136.4392 C54.3212,135.6182 58.3352,131.0712 58.3352,125.4892 L58.3352,75.3832 Z" id="Fill-6" fill="#9B9B9B"></path>
                <path d="M45.8626,123.3617 C44.0826,121.7737 45.2716,121.1017 45.2006,120.4747 C44.0266,115.6267 40.1756,112.6937 42.1676,111.0927 C41.6756,109.4917 40.6756,107.4807 40.7126,107.4847 C34.7106,104.0387 29.5986,98.4397 28.7306,97.6187 C27.6786,96.4747 25.8856,95.3257 25.5486,94.3967 C24.1056,93.0717 17.0306,83.0367 15.3836,79.3407 L12.5126,78.9347 C11.2066,73.5987 6.8456,69.1277 6.7376,63.7787 C6.6966,61.7557 7.6546,57.4227 8.0106,56.5587 C8.3606,55.6827 10.0306,54.2437 10.0306,54.2437 L10.0306,52.8127 C3.7676,52.9897 5.5686,52.3507 4.4886,49.9157 C3.7306,48.2297 4.2746,47.8587 4.5476,46.6897 C5.3876,43.2377 8.1796,37.9147 9.3346,35.4957 C9.6876,34.2757 10.8946,31.3317 10.8946,31.3317 C15.5636,21.8257 17.3056,22.5247 22.8506,21.9887 L23.1236,21.5957 C28.6786,21.3557 27.7696,20.9367 28.5536,15.5847 C27.7436,15.9317 27.5036,13.9087 27.5036,13.9087 C27.0606,10.8627 28.3446,11.4407 28.9556,11.3797 C29.0856,6.3717 29.5986,4.7967 33.2106,3.4157 L14.4976,3.4157 C8.3756,3.4157 3.4166,8.3787 3.4166,14.4967 L3.4166,125.4887 C3.4166,131.6137 8.3756,136.5767 14.4976,136.5767 L47.2716,136.5767 C43.5196,134.5497 45.7346,130.6887 45.8626,123.3617" id="Fill-8" fill="#4A4A4A"></path>
                <path d="M12.7322,129.6009 L10.3922,129.6009 L10.3922,109.5049 L14.0982,109.5049 L17.0772,125.9699 C16.8262,122.0309 16.4912,117.2739 16.4912,113.2209 L16.4912,109.5049 L18.8322,109.5049 L18.8322,129.6009 L15.4332,129.6009 L12.4542,113.4999 C12.6492,117.2159 12.7322,120.1729 12.7322,123.2679 L12.7322,129.6009 Z M33.3402,111.7569 L33.2012,111.7569 C33.0342,114.1769 32.6992,118.4269 32.5882,119.7779 L32.2822,123.2399 L34.3712,123.2399 L34.0642,119.7779 C33.9522,118.3999 33.5632,114.2049 33.3402,111.7569 L33.3402,111.7569 Z M34.5382,125.5189 L32.1152,125.5189 L31.7792,129.6009 L29.0792,129.6009 L31.5022,109.5049 L35.3452,109.5049 L37.6842,129.6009 L34.8722,129.6009 L34.5382,125.5189 Z M23.3702,112.0389 L23.3702,118.6799 L24.3732,118.6799 C25.3202,118.6799 25.5702,118.3409 25.5702,117.2459 L25.5702,113.3899 C25.5702,112.4589 25.2912,112.0389 24.4002,112.0389 L23.3702,112.0389 Z M23.3702,120.8749 L23.3702,127.0679 L24.4002,127.0679 C25.3202,127.0679 25.5702,126.5879 25.5702,125.6319 L25.5702,122.2259 C25.5702,121.2409 25.2642,120.8749 24.3732,120.8749 L23.3702,120.8749 Z M20.6972,129.6009 L20.6972,109.5049 L24.5952,109.5049 C26.8512,109.5049 28.2442,110.7159 28.2442,113.5309 L28.2442,116.5139 C28.2442,118.3409 27.6882,119.2719 26.9062,119.7219 C27.6882,120.2569 28.2442,121.1579 28.2442,122.6769 L28.2442,125.6049 C28.2442,128.3629 26.7672,129.6009 24.5952,129.6009 L20.6972,129.6009 Z" id="Fill-10" fill="#FFFFFF"></path>
            </g>
        </g>
    </g>
</svg>